{
  "asset": {
    "generator": "Khronos glTF Blender I/O v3.6.27",
    "version": "2.0"
  },
  "scene": 0,
  "scenes": [
    {
      "name": "Scene",
      "nodes": [
        0,
        1
      ]
    }
  ],
  "nodes": [
    {
      "mesh": 0,
      "name": "rollershutter_window_01"
    },
    {
      "mesh": 1,
      "name": "rollershutter_window_01_graffiti",
      "translation": [
        3,
        0,
        0
      ]
    }
  ],
  "materials": [
    {
      "doubleSided": true,
      "name": "rollershutter_window_01",
      "normalTexture": {
        "index": 0
      },
      "pbrMetallicRoughness": {
        "baseColorTexture": {
          "index": 1
        },
        "metallicRoughnessTexture": {
          "index": 2
        }
      }
    },
    {
      "doubleSided": true,
      "name": "rollershutter_window_01_graffiti",
      "normalTexture": {
        "index": 3
      },
      "pbrMetallicRoughness": {
        "baseColorTexture": {
          "index": 4
        },
        "metallicRoughnessTexture": {
          "index": 5
        }
      }
    }
  ],
  "meshes": [
    {
      "name": "window_1",
      "primitives": [
        {
          "attributes": {
            "POSITION": 0,
            "NORMAL": 1,
            "TEXCOORD_0": 2
          },
          "indices": 3,
          "material": 0
        }
      ]
    },
    {
      "name": "window_1.001",
      "primitives": [
        {
          "attributes": {
            "POSITION": 4,
            "NORMAL": 5,
            "TEXCOORD_0": 6
          },
          "indices": 7,
          "material": 1
        }
      ]
    }
  ],
  "textures": [
    {
      "sampler": 0,
      "source": 0
    },
    {
      "sampler": 0,
      "source": 1
    },
    {
      "sampler": 0,
      "source": 2
    },
    {
      "sampler": 0,
      "source": 0
    },
    {
      "sampler": 0,
      "source": 3
    },
    {
      "sampler": 0,
      "source": 2
    }
  ],
  "images": [
    {
      "mimeType": "image/jpeg",
      "name": "rollershutter_window_01_nor_gl",
      "uri": "textures/rollershutter_window_01_nor_gl_1k.jpg"
    },
    {
      "mimeType": "image/jpeg",
      "name": "rollershutter_window_01_diff",
      "uri": "textures/rollershutter_window_01_diff_1k.jpg"
    },
    {
      "mimeType": "image/jpeg",
      "name": "rollershutter_window_01_metal-rollershutter_window_01_rough",
      "uri": "textures/rollershutter_window_01_arm_1k.jpg"
    },
    {
      "mimeType": "image/jpeg",
      "name": "rollershutter_window_01_graffiti_diff",
      "uri": "textures/rollershutter_window_01_graffiti_diff_1k.jpg"
    }
  ],
  "accessors": [
    {
      "bufferView": 0,
      "componentType": 5126,
      "count": 747,
      "max": [
        1.050000548362732,
        1.850726842880249,
        0.29908546805381775
      ],
      "min": [
        -1.050000548362732,
        0.0000022899255327502033,
        -0.0010004400974139571
      ],
      "type": "VEC3"
    },
    {
      "bufferView": 1,
      "componentType": 5126,
      "count": 747,
      "type": "VEC3"
    },
    {
      "bufferView": 2,
      "componentType": 5126,
      "count": 747,
      "type": "VEC2"
    },
    {
      "bufferView": 3,
      "componentType": 5123,
      "count": 1656,
      "type": "SCALAR"
    },
    {
      "bufferView": 4,
      "componentType": 5126,
      "count": 747,
      "max": [
        1.050000548362732,
        1.850726842880249,
        0.29908546805381775
      ],
      "min": [
        -1.050000548362732,
        0.0000022899255327502033,
        -0.0010004400974139571
      ],
      "type": "VEC3"
    },
    {
      "bufferView": 5,
      "componentType": 5126,
      "count": 747,
      "type": "VEC3"
    },
    {
      "bufferView": 6,
      "componentType": 5126,
      "count": 747,
      "type": "VEC2"
    },
    {
      "bufferView": 7,
      "componentType": 5123,
      "count": 1656,
      "type": "SCALAR"
    }
  ],
  "bufferViews": [
    {
      "buffer": 0,
      "byteLength": 8964,
      "byteOffset": 0,
      "target": 34962
    },
    {
      "buffer": 0,
      "byteLength": 8964,
      "byteOffset": 8964,
      "target": 34962
    },
    {
      "buffer": 0,
      "byteLength": 5976,
      "byteOffset": 17928,
      "target": 34962
    },
    {
      "buffer": 0,
      "byteLength": 3312,
      "byteOffset": 23904,
      "target": 34963
    },
    {
      "buffer": 0,
      "byteLength": 8964,
      "byteOffset": 27216,
      "target": 34962
    },
    {
      "buffer": 0,
      "byteLength": 8964,
      "byteOffset": 36180,
      "target": 34962
    },
    {
      "buffer": 0,
      "byteLength": 5976,
      "byteOffset": 45144,
      "target": 34962
    },
    {
      "buffer": 0,
      "byteLength": 3312,
      "byteOffset": 51120,
      "target": 34963
    }
  ],
  "samplers": [
    {
      "magFilter": 9729,
      "minFilter": 9987
    }
  ],
  "buffers": [
    {
      "byteLength": 54432,
      "uri": "rollershutter_window_01.bin"
    }
  ]
}