{
	"asset":{
		"generator":"Khronos glTF Blender I/O v5.2.40",
		"version":"2.0"
	},
	"extensionsUsed":[
		"KHR_materials_emissive_strength"
	],
	"scene":0,
	"scenes":[
		{
			"name":"Scene",
			"nodes":[
				0,
				1,
				2,
				3,
				4,
				5,
				6,
				7
			]
		}
	],
	"nodes":[
		{
			"mesh":0,
			"name":"Ceiling",
			"translation":[
				0,
				3.25,
				0
			]
		},
		{
			"mesh":1,
			"name":"Entrance_Shutter",
			"translation":[
				-7,
				0,
				-20.299999237060547
			]
		},
		{
			"mesh":2,
			"name":"Fixtures",
			"translation":[
				-26,
				2.9700000286102295,
				18
			]
		},
		{
			"mesh":3,
			"name":"Floor_Annex",
			"translation":[
				43.29999923706055,
				-0.15000000596046448,
				0
			]
		},
		{
			"mesh":4,
			"name":"Floor_Parking",
			"translation":[
				0,
				-0.15000000596046448,
				0
			]
		},
		{
			"mesh":5,
			"name":"Services",
			"rotation":[
				0,
				0,
				-0.7071068286895752,
				0.7071068286895752
			],
			"translation":[
				0,
				2.4800000190734863,
				11
			]
		},
		{
			"mesh":6,
			"name":"Walls_Concrete",
			"translation":[
				0,
				1.5499999523162842,
				20.149999618530273
			]
		},
		{
			"mesh":7,
			"name":"Walls_Plaster",
			"translation":[
				43.29999923706055,
				1.5,
				20.149999618530273
			]
		}
	],
	"materials":[
		{
			"doubleSided":true,
			"name":"Ceiling",
			"pbrMetallicRoughness":{
				"baseColorFactor":[
					0.23999999463558197,
					0.23999999463558197,
					0.25,
					1
				],
				"metallicFactor":0,
				"roughnessFactor":0.800000011920929
			}
		},
		{
			"doubleSided":true,
			"name":"rollershutter_window_01",
			"normalTexture":{
				"index":0
			},
			"pbrMetallicRoughness":{
				"baseColorTexture":{
					"index":1
				},
				"metallicRoughnessTexture":{
					"index":2
				}
			}
		},
		{
			"doubleSided":true,
			"name":"rollershutter_window_01_graffiti",
			"normalTexture":{
				"index":3
			},
			"pbrMetallicRoughness":{
				"baseColorTexture":{
					"index":4
				},
				"metallicRoughnessTexture":{
					"index":5
				}
			}
		},
		{
			"doubleSided":true,
			"emissiveFactor":[
				0.949999988079071,
				0.9700000286102295,
				1
			],
			"extensions":{
				"KHR_materials_emissive_strength":{
					"emissiveStrength":8
				}
			},
			"name":"Fixtures",
			"pbrMetallicRoughness":{
				"baseColorFactor":[
					0.8999999761581421,
					0.9200000166893005,
					0.9599999785423279,
					1
				],
				"metallicFactor":0,
				"roughnessFactor":0.800000011920929
			}
		},
		{
			"doubleSided":true,
			"name":"Floor_Annex",
			"pbrMetallicRoughness":{
				"baseColorFactor":[
					0.28999999165534973,
					0.2800000011920929,
					0.27000001072883606,
					1
				],
				"metallicFactor":0,
				"roughnessFactor":0.30000001192092896
			}
		},
		{
			"doubleSided":true,
			"name":"Floor_Parking",
			"pbrMetallicRoughness":{
				"baseColorFactor":[
					0.25999999046325684,
					0.25999999046325684,
					0.27000001072883606,
					1
				],
				"metallicFactor":0,
				"roughnessFactor":0.30000001192092896
			}
		},
		{
			"doubleSided":true,
			"name":"Services",
			"pbrMetallicRoughness":{
				"baseColorFactor":[
					0.18000000715255737,
					0.18000000715255737,
					0.1899999976158142,
					1
				],
				"metallicFactor":0,
				"roughnessFactor":0.800000011920929
			}
		},
		{
			"doubleSided":true,
			"name":"Walls_Concrete",
			"pbrMetallicRoughness":{
				"baseColorFactor":[
					0.3199999928474426,
					0.3199999928474426,
					0.3199999928474426,
					1
				],
				"metallicFactor":0,
				"roughnessFactor":0.800000011920929
			}
		},
		{
			"doubleSided":true,
			"name":"Walls_Plaster",
			"pbrMetallicRoughness":{
				"baseColorFactor":[
					0.41999998688697815,
					0.4000000059604645,
					0.3700000047683716,
					1
				],
				"metallicFactor":0,
				"roughnessFactor":0.800000011920929
			}
		}
	],
	"meshes":[
		{
			"name":"Cube.001",
			"primitives":[
				{
					"attributes":{
						"POSITION":0,
						"NORMAL":1,
						"TEXCOORD_0":2
					},
					"indices":3,
					"material":0
				}
			]
		},
		{
			"name":"Entrance_Shutter",
			"primitives":[
				{
					"attributes":{
						"POSITION":4,
						"NORMAL":5,
						"TEXCOORD_0":6
					},
					"indices":7,
					"material":1
				},
				{
					"attributes":{
						"POSITION":8,
						"NORMAL":9,
						"TEXCOORD_0":10
					},
					"indices":11,
					"material":2
				}
			]
		},
		{
			"name":"Cube.096",
			"primitives":[
				{
					"attributes":{
						"POSITION":12,
						"NORMAL":13,
						"TEXCOORD_0":14
					},
					"indices":15,
					"material":3
				}
			]
		},
		{
			"name":"Cube.051",
			"primitives":[
				{
					"attributes":{
						"POSITION":16,
						"NORMAL":17,
						"TEXCOORD_0":18
					},
					"indices":19,
					"material":4
				}
			]
		},
		{
			"name":"Cube",
			"primitives":[
				{
					"attributes":{
						"POSITION":20,
						"NORMAL":21,
						"TEXCOORD_0":22
					},
					"indices":23,
					"material":5
				}
			]
		},
		{
			"name":"Cylinder",
			"primitives":[
				{
					"attributes":{
						"POSITION":24,
						"NORMAL":25,
						"TEXCOORD_0":26
					},
					"indices":27,
					"material":6
				}
			]
		},
		{
			"name":"Cube.002",
			"primitives":[
				{
					"attributes":{
						"POSITION":28,
						"NORMAL":29,
						"TEXCOORD_0":30
					},
					"indices":31,
					"material":7
				},
				{
					"attributes":{
						"POSITION":32,
						"NORMAL":33,
						"TEXCOORD_0":34
					},
					"indices":35
				}
			]
		},
		{
			"name":"Cube.053",
			"primitives":[
				{
					"attributes":{
						"POSITION":36,
						"NORMAL":37,
						"TEXCOORD_0":38
					},
					"indices":39,
					"material":8
				}
			]
		}
	],
	"textures":[
		{
			"sampler":0,
			"source":0
		},
		{
			"sampler":0,
			"source":1
		},
		{
			"sampler":0,
			"source":2
		},
		{
			"sampler":0,
			"source":0
		},
		{
			"sampler":0,
			"source":3
		},
		{
			"sampler":0,
			"source":2
		}
	],
	"images":[
		{
			"mimeType":"image/jpeg",
			"name":"rollershutter_window_01_nor_gl_1k",
			"uri":"rollershutter_window_01_nor_gl_1k.jpg"
		},
		{
			"mimeType":"image/jpeg",
			"name":"rollershutter_window_01_diff_1k",
			"uri":"rollershutter_window_01_diff_1k.jpg"
		},
		{
			"mimeType":"image/jpeg",
			"name":"rollershutter_window_01_arm_1k",
			"uri":"rollershutter_window_01_arm_1k.jpg"
		},
		{
			"mimeType":"image/jpeg",
			"name":"rollershutter_window_01_graffiti_diff_1k",
			"uri":"rollershutter_window_01_graffiti_diff_1k.jpg"
		}
	],
	"accessors":[
		{
			"bufferView":0,
			"componentType":5126,
			"count":1248,
			"max":[
				56.29999923706055,
				0.15000000596046448,
				20
			],
			"min":[
				-30,
				-0.5949999094009399,
				-20
			],
			"type":"VEC3"
		},
		{
			"bufferView":1,
			"componentType":5126,
			"count":1248,
			"type":"VEC3"
		},
		{
			"bufferView":2,
			"componentType":5126,
			"count":1248,
			"type":"VEC2"
		},
		{
			"bufferView":3,
			"componentType":5123,
			"count":1716,
			"type":"SCALAR"
		},
		{
			"bufferView":4,
			"componentType":5126,
			"count":4632,
			"max":[
				15,
				2.200002670288086,
				0.29908546805381775
			],
			"min":[
				-1,
				2.7220885385759175e-06,
				-0.0010004400974139571
			],
			"type":"VEC3"
		},
		{
			"bufferView":5,
			"componentType":5126,
			"count":4632,
			"type":"VEC3"
		},
		{
			"bufferView":6,
			"componentType":5126,
			"count":4632,
			"type":"VEC2"
		},
		{
			"bufferView":7,
			"componentType":5123,
			"count":8280,
			"type":"SCALAR"
		},
		{
			"bufferView":8,
			"componentType":5126,
			"count":2778,
			"max":[
				13,
				2.200002670288086,
				0.29908546805381775
			],
			"min":[
				1,
				2.7220885385759175e-06,
				-0.0010004400974139571
			],
			"type":"VEC3"
		},
		{
			"bufferView":9,
			"componentType":5126,
			"count":2778,
			"type":"VEC3"
		},
		{
			"bufferView":10,
			"componentType":5126,
			"count":2778,
			"type":"VEC2"
		},
		{
			"bufferView":11,
			"componentType":5123,
			"count":4968,
			"type":"SCALAR"
		},
		{
			"bufferView":12,
			"componentType":5126,
			"count":5088,
			"max":[
				75.10000610351562,
				0.03999999910593033,
				0.800000011920929
			],
			"min":[
				-0.8999999761581421,
				-0.1400001347064972,
				-36.79999923706055
			],
			"type":"VEC3"
		},
		{
			"bufferView":13,
			"componentType":5126,
			"count":5088,
			"type":"VEC3"
		},
		{
			"bufferView":14,
			"componentType":5126,
			"count":5088,
			"type":"VEC2"
		},
		{
			"bufferView":15,
			"componentType":5123,
			"count":6996,
			"type":"SCALAR"
		},
		{
			"bufferView":16,
			"componentType":5126,
			"count":192,
			"max":[
				13,
				1.25,
				20
			],
			"min":[
				-13,
				-0.15000000596046448,
				-20
			],
			"type":"VEC3"
		},
		{
			"bufferView":17,
			"componentType":5126,
			"count":192,
			"type":"VEC3"
		},
		{
			"bufferView":18,
			"componentType":5126,
			"count":192,
			"type":"VEC2"
		},
		{
			"bufferView":19,
			"componentType":5123,
			"count":264,
			"type":"SCALAR"
		},
		{
			"bufferView":20,
			"componentType":5126,
			"count":96,
			"max":[
				30,
				0.15000000596046448,
				20
			],
			"min":[
				-30,
				-0.15000000596046448,
				-20
			],
			"type":"VEC3"
		},
		{
			"bufferView":21,
			"componentType":5126,
			"count":96,
			"type":"VEC3"
		},
		{
			"bufferView":22,
			"componentType":5126,
			"count":96,
			"type":"VEC2"
		},
		{
			"bufferView":23,
			"componentType":5123,
			"count":132,
			"type":"SCALAR"
		},
		{
			"bufferView":24,
			"componentType":5126,
			"count":2304,
			"max":[
				0.3050021827220917,
				56.29999923706055,
				0.09331560134887695
			],
			"min":[
				-0.5950019359588623,
				-30,
				-20.61331558227539
			],
			"type":"VEC3"
		},
		{
			"bufferView":25,
			"componentType":5126,
			"count":2304,
			"type":"VEC3"
		},
		{
			"bufferView":26,
			"componentType":5126,
			"count":2304,
			"type":"VEC2"
		},
		{
			"bufferView":27,
			"componentType":5123,
			"count":3240,
			"type":"SCALAR"
		},
		{
			"bufferView":28,
			"componentType":5126,
			"count":3648,
			"max":[
				30.299999237060547,
				1.5500001907348633,
				0.15000000596046448
			],
			"min":[
				-30.299999237060547,
				-1.5499999523162842,
				-40.45000076293945
			],
			"type":"VEC3"
		},
		{
			"bufferView":29,
			"componentType":5126,
			"count":3648,
			"type":"VEC3"
		},
		{
			"bufferView":30,
			"componentType":5126,
			"count":3648,
			"type":"VEC2"
		},
		{
			"bufferView":31,
			"componentType":5123,
			"count":5016,
			"type":"SCALAR"
		},
		{
			"bufferView":32,
			"componentType":5126,
			"count":3456,
			"max":[
				30,
				-1.3299999237060547,
				-0.14999908208847046
			],
			"min":[
				-30,
				-1.5499999523162842,
				-40.150001525878906
			],
			"type":"VEC3"
		},
		{
			"bufferView":33,
			"componentType":5126,
			"count":3456,
			"type":"VEC3"
		},
		{
			"bufferView":34,
			"componentType":5126,
			"count":3456,
			"type":"VEC2"
		},
		{
			"bufferView":35,
			"componentType":5123,
			"count":4752,
			"type":"SCALAR"
		},
		{
			"bufferView":36,
			"componentType":5126,
			"count":2784,
			"max":[
				13.149999618530273,
				1.5049998760223389,
				0.15000000596046448
			],
			"min":[
				-13,
				-1.5,
				-40.45000076293945
			],
			"type":"VEC3"
		},
		{
			"bufferView":37,
			"componentType":5126,
			"count":2784,
			"type":"VEC3"
		},
		{
			"bufferView":38,
			"componentType":5126,
			"count":2784,
			"type":"VEC2"
		},
		{
			"bufferView":39,
			"componentType":5123,
			"count":3840,
			"type":"SCALAR"
		}
	],
	"bufferViews":[
		{
			"buffer":0,
			"byteLength":14976,
			"byteOffset":0,
			"target":34962
		},
		{
			"buffer":0,
			"byteLength":14976,
			"byteOffset":14976,
			"target":34962
		},
		{
			"buffer":0,
			"byteLength":9984,
			"byteOffset":29952,
			"target":34962
		},
		{
			"buffer":0,
			"byteLength":3432,
			"byteOffset":39936,
			"target":34963
		},
		{
			"buffer":0,
			"byteLength":55584,
			"byteOffset":43368,
			"target":34962
		},
		{
			"buffer":0,
			"byteLength":55584,
			"byteOffset":98952,
			"target":34962
		},
		{
			"buffer":0,
			"byteLength":37056,
			"byteOffset":154536,
			"target":34962
		},
		{
			"buffer":0,
			"byteLength":16560,
			"byteOffset":191592,
			"target":34963
		},
		{
			"buffer":0,
			"byteLength":33336,
			"byteOffset":208152,
			"target":34962
		},
		{
			"buffer":0,
			"byteLength":33336,
			"byteOffset":241488,
			"target":34962
		},
		{
			"buffer":0,
			"byteLength":22224,
			"byteOffset":274824,
			"target":34962
		},
		{
			"buffer":0,
			"byteLength":9936,
			"byteOffset":297048,
			"target":34963
		},
		{
			"buffer":0,
			"byteLength":61056,
			"byteOffset":306984,
			"target":34962
		},
		{
			"buffer":0,
			"byteLength":61056,
			"byteOffset":368040,
			"target":34962
		},
		{
			"buffer":0,
			"byteLength":40704,
			"byteOffset":429096,
			"target":34962
		},
		{
			"buffer":0,
			"byteLength":13992,
			"byteOffset":469800,
			"target":34963
		},
		{
			"buffer":0,
			"byteLength":2304,
			"byteOffset":483792,
			"target":34962
		},
		{
			"buffer":0,
			"byteLength":2304,
			"byteOffset":486096,
			"target":34962
		},
		{
			"buffer":0,
			"byteLength":1536,
			"byteOffset":488400,
			"target":34962
		},
		{
			"buffer":0,
			"byteLength":528,
			"byteOffset":489936,
			"target":34963
		},
		{
			"buffer":0,
			"byteLength":1152,
			"byteOffset":490464,
			"target":34962
		},
		{
			"buffer":0,
			"byteLength":1152,
			"byteOffset":491616,
			"target":34962
		},
		{
			"buffer":0,
			"byteLength":768,
			"byteOffset":492768,
			"target":34962
		},
		{
			"buffer":0,
			"byteLength":264,
			"byteOffset":493536,
			"target":34963
		},
		{
			"buffer":0,
			"byteLength":27648,
			"byteOffset":493800,
			"target":34962
		},
		{
			"buffer":0,
			"byteLength":27648,
			"byteOffset":521448,
			"target":34962
		},
		{
			"buffer":0,
			"byteLength":18432,
			"byteOffset":549096,
			"target":34962
		},
		{
			"buffer":0,
			"byteLength":6480,
			"byteOffset":567528,
			"target":34963
		},
		{
			"buffer":0,
			"byteLength":43776,
			"byteOffset":574008,
			"target":34962
		},
		{
			"buffer":0,
			"byteLength":43776,
			"byteOffset":617784,
			"target":34962
		},
		{
			"buffer":0,
			"byteLength":29184,
			"byteOffset":661560,
			"target":34962
		},
		{
			"buffer":0,
			"byteLength":10032,
			"byteOffset":690744,
			"target":34963
		},
		{
			"buffer":0,
			"byteLength":41472,
			"byteOffset":700776,
			"target":34962
		},
		{
			"buffer":0,
			"byteLength":41472,
			"byteOffset":742248,
			"target":34962
		},
		{
			"buffer":0,
			"byteLength":27648,
			"byteOffset":783720,
			"target":34962
		},
		{
			"buffer":0,
			"byteLength":9504,
			"byteOffset":811368,
			"target":34963
		},
		{
			"buffer":0,
			"byteLength":33408,
			"byteOffset":820872,
			"target":34962
		},
		{
			"buffer":0,
			"byteLength":33408,
			"byteOffset":854280,
			"target":34962
		},
		{
			"buffer":0,
			"byteLength":22272,
			"byteOffset":887688,
			"target":34962
		},
		{
			"buffer":0,
			"byteLength":7680,
			"byteOffset":909960,
			"target":34963
		}
	],
	"samplers":[
		{
			"magFilter":9729,
			"minFilter":9987
		}
	],
	"buffers":[
		{
			"byteLength":917640,
			"uri":"parking_garage.bin"
		}
	]
}
